<svg xmlns="http://www.w3.org/2000/svg" version="1.1" xmlns:xlink="http://www.w3.org/1999/xlink" xmlns:svgjs="http://svgjs.dev/svgjs" width="1000" height="1000" viewBox="0 0 1000 1000"><rect width="1000" height="1000" fill="#000000"></rect><g transform="matrix(0.7,0,0,0.7,150,106.25)"><svg viewBox="0 0 320 360" data-background-color="#444444" preserveAspectRatio="xMidYMid meet" height="1125" width="1000" xmlns="http://www.w3.org/2000/svg" xmlns:xlink="http://www.w3.org/1999/xlink"><g id="tight-bounds" transform="matrix(1,0,0,1,0,0)"><svg viewBox="0 0 320 360" height="360" width="320"><g><svg></svg></g><g><svg viewBox="0 0 320 360" height="360" width="320"><g><path d="M320 187.111c0-45.764-20.238-86.866-52.203-114.908-28.043-31.964-69.145-52.203-114.908-52.203-84.302 0-152.889 68.587-152.889 152.889 0 45.753 20.231 86.848 52.185 114.891 28.043 31.975 69.152 52.22 114.926 52.22 0.299 0 0.59-0.021 0.889-0.021 0.299 0 0.59 0.021 0.889 0.021 83.456 0 151.111-67.655 151.111-151.111 0-0.299-0.021-0.59-0.021-0.889 0-0.299 0.021-0.59 0.021-0.889zM59.833 263.097c-15.093-21.255-24.071-47.143-24.256-75.097 0.48-72.928 59.492-131.943 132.423-132.423 27.954 0.185 53.845 9.163 75.097 24.256 24.366 23.627 39.57 56.64 39.57 93.056 0 71.559-58.219 129.778-129.778 129.778-36.416 0-69.429-15.204-93.056-39.57zM3.556 172.889c0-82.343 66.99-149.333 149.333-149.333 35.051 0 67.292 12.167 92.8 32.462-22.98-13.824-49.863-21.796-78.578-21.796-84.302 0-152.889 68.587-152.889 152.889 0 28.708 7.968 55.584 21.785 78.56-20.288-25.5-32.452-57.739-32.451-92.782zM167.111 318.667c-35.84 0-68.363-14.418-92.107-37.743 21.952 15.89 48.864 25.298 77.885 25.298 73.522 0 133.333-59.812 133.333-133.333 0-29.02-9.408-55.932-25.298-77.885 23.324 23.744 37.742 56.267 37.743 92.107 0 72.54-59.015 131.556-131.556 131.556z" fill="#ffffff" fill-rule="nonzero" stroke="none" stroke-width="1" stroke-linecap="butt" stroke-linejoin="miter" stroke-miterlimit="10" stroke-dasharray="" stroke-dashoffset="0" font-family="none" font-weight="none" font-size="none" text-anchor="none" style="mix-blend-mode: normal" data-fill-palette-color="tertiary"></path></g><g transform="matrix(1,0,0,1,64,134.75289161977184)"><svg viewBox="0 0 192 90.49421676045628" height="90.49421676045628" width="192"><g><svg viewBox="0 0 192 90.49421676045628" height="90.49421676045628" width="192"><g><svg viewBox="0 0 192 90.49421676045628" height="90.49421676045628" width="192"><g><svg viewBox="0 0 192 90.49421676045628" height="90.49421676045628" width="192"><g id="textblocktransform"><svg viewBox="0 0 192 90.49421676045628" height="90.49421676045628" width="192" id="textblock"><g><svg viewBox="0 0 192 48.80825638240087" height="48.80825638240087" width="192"><g transform="matrix(1,0,0,1,0,0)"><svg width="192" viewBox="2.3 -35.6 184.07999999999998 46.8" height="48.80825638240087" data-palette-color="#ffffff"><path d="M13.55 0.6L13.55 0.6Q11.3 0.6 9.28-0.25 7.25-1.1 5.7-2.73 4.15-4.35 3.23-6.73 2.3-9.1 2.3-12.1L2.3-12.1Q2.3-15.15 3.23-17.53 4.15-19.9 5.7-21.55 7.25-23.2 9.28-24.05 11.3-24.9 13.55-24.9L13.55-24.9Q15.8-24.9 17.82-24.05 19.85-23.2 21.4-21.55 22.95-19.9 23.88-17.53 24.8-15.15 24.8-12.1L24.8-12.1Q24.8-9.1 23.88-6.73 22.95-4.35 21.4-2.73 19.85-1.1 17.82-0.25 15.8 0.6 13.55 0.6ZM13.55-2.8L13.55-2.8Q15.1-2.8 16.4-3.48 17.7-4.15 18.63-5.38 19.55-6.6 20.05-8.3 20.55-10 20.55-12.1L20.55-12.1Q20.55-14.2 20.05-15.93 19.55-17.65 18.63-18.9 17.7-20.15 16.4-20.83 15.1-21.5 13.55-21.5L13.55-21.5Q12-21.5 10.7-20.83 9.4-20.15 8.47-18.9 7.55-17.65 7.05-15.93 6.55-14.2 6.55-12.1L6.55-12.1Q6.55-10 7.05-8.3 7.55-6.6 8.47-5.38 9.4-4.15 10.7-3.48 12-2.8 13.55-2.8ZM37.55 0.6L37.55 0.6Q34.95 0.6 32.6-0.35 30.25-1.3 28.5-2.75L28.5-2.75 30.55-5.5Q32.15-4.2 33.82-3.4 35.5-2.6 37.7-2.6L37.7-2.6Q40.1-2.6 41.3-3.7 42.5-4.8 42.5-6.4L42.5-6.4Q42.5-7.35 42-8.05 41.5-8.75 40.72-9.28 39.95-9.8 38.95-10.2 37.95-10.6 36.95-11L36.95-11Q35.65-11.45 34.35-12.03 33.05-12.6 32.02-13.43 31-14.25 30.35-15.35 29.7-16.45 29.7-18L29.7-18Q29.7-19.45 30.27-20.73 30.85-22 31.92-22.93 33-23.85 34.55-24.38 36.1-24.9 38.05-24.9L38.05-24.9Q40.35-24.9 42.27-24.1 44.2-23.3 45.6-22.15L45.6-22.15 43.65-19.55Q42.4-20.5 41.05-21.1 39.7-21.7 38.1-21.7L38.1-21.7Q35.8-21.7 34.72-20.65 33.65-19.6 33.65-18.2L33.65-18.2Q33.65-17.35 34.1-16.73 34.55-16.1 35.3-15.63 36.05-15.15 37.02-14.78 38-14.4 39.05-14L39.05-14Q40.35-13.5 41.67-12.95 43-12.4 44.05-11.58 45.1-10.75 45.77-9.55 46.45-8.35 46.45-6.65L46.45-6.65Q46.45-5.15 45.87-3.85 45.3-2.55 44.17-1.55 43.05-0.55 41.37 0.03 39.7 0.6 37.55 0.6ZM61.75 0.6L61.75 0.6Q59.34 0.6 57.25-0.25 55.15-1.1 53.62-2.73 52.09-4.35 51.22-6.73 50.34-9.1 50.34-12.1L50.34-12.1Q50.34-15.15 51.3-17.53 52.25-19.9 53.84-21.55 55.45-23.2 57.57-24.05 59.7-24.9 62.05-24.9L62.05-24.9Q64.45-24.9 66.15-24.05 67.84-23.2 69.15-22.05L69.15-22.05 67.05-19.35Q66-20.3 64.82-20.9 63.65-21.5 62.2-21.5L62.2-21.5Q60.55-21.5 59.15-20.83 57.75-20.15 56.75-18.9 55.75-17.65 55.17-15.93 54.59-14.2 54.59-12.1L54.59-12.1Q54.59-10 55.15-8.3 55.7-6.6 56.67-5.38 57.65-4.15 59.05-3.48 60.45-2.8 62.09-2.8L62.09-2.8Q63.8-2.8 65.22-3.53 66.65-4.25 67.8-5.25L67.8-5.25 69.59-2.5Q67.95-1.05 65.95-0.23 63.95 0.6 61.75 0.6ZM80.04 0.6L80.04 0.6Q76.99 0.6 74.97-1.2 72.94-3 72.94-6.3L72.94-6.3Q72.94-10.3 76.49-12.43 80.04-14.55 87.84-15.4L87.84-15.4Q87.84-16.55 87.62-17.65 87.39-18.75 86.84-19.6 86.29-20.45 85.32-20.98 84.34-21.5 82.84-21.5L82.84-21.5Q80.74-21.5 78.89-20.7 77.04-19.9 75.59-18.9L75.59-18.9 73.99-21.75Q75.69-22.85 78.14-23.88 80.59-24.9 83.54-24.9L83.54-24.9Q87.99-24.9 89.99-22.18 91.99-19.45 91.99-14.9L91.99-14.9 91.99 0 88.59 0 88.24-2.9 88.09-2.9Q86.34-1.45 84.34-0.43 82.34 0.6 80.04 0.6ZM81.24-2.7L81.24-2.7Q82.99-2.7 84.54-3.53 86.09-4.35 87.84-5.95L87.84-5.95 87.84-12.7Q84.79-12.3 82.72-11.75 80.64-11.2 79.37-10.45 78.09-9.7 77.52-8.72 76.94-7.75 76.94-6.6L76.94-6.6Q76.94-4.5 78.19-3.6 79.44-2.7 81.24-2.7ZM103.74 0L99.64 0 99.64-24.3 103.04-24.3 103.39-19.9 103.54-19.9Q104.79-22.2 106.57-23.55 108.34-24.9 110.44-24.9L110.44-24.9Q111.89-24.9 113.04-24.4L113.04-24.4 112.24-20.8Q111.64-21 111.14-21.1 110.64-21.2 109.89-21.2L109.89-21.2Q108.34-21.2 106.67-19.95 104.99-18.7 103.74-15.6L103.74-15.6 103.74 0ZM116.29 0.6L116.29 0.6Q115.04 0.6 114.16-0.28 113.29-1.15 113.29-2.5L113.29-2.5Q113.29-3.95 114.16-4.83 115.04-5.7 116.29-5.7L116.29-5.7Q117.49-5.7 118.36-4.83 119.24-3.95 119.24-2.5L119.24-2.5Q119.24-1.15 118.36-0.28 117.49 0.6 116.29 0.6ZM135.49 0.6L135.49 0.6Q133.24 0.6 131.21-0.25 129.19-1.1 127.64-2.73 126.09-4.35 125.16-6.73 124.24-9.1 124.24-12.1L124.24-12.1Q124.24-15.15 125.16-17.53 126.09-19.9 127.64-21.55 129.19-23.2 131.21-24.05 133.24-24.9 135.49-24.9L135.49-24.9Q137.74-24.9 139.76-24.05 141.79-23.2 143.34-21.55 144.89-19.9 145.81-17.53 146.74-15.15 146.74-12.1L146.74-12.1Q146.74-9.1 145.81-6.73 144.89-4.35 143.34-2.73 141.79-1.1 139.76-0.25 137.74 0.6 135.49 0.6ZM135.49-2.8L135.49-2.8Q137.04-2.8 138.34-3.48 139.64-4.15 140.56-5.38 141.49-6.6 141.99-8.3 142.49-10 142.49-12.1L142.49-12.1Q142.49-14.2 141.99-15.93 141.49-17.65 140.56-18.9 139.64-20.15 138.34-20.83 137.04-21.5 135.49-21.5L135.49-21.5Q133.94-21.5 132.64-20.83 131.34-20.15 130.41-18.9 129.49-17.65 128.99-15.93 128.49-14.2 128.49-12.1L128.49-12.1Q128.49-10 128.99-8.3 129.49-6.6 130.41-5.38 131.34-4.15 132.64-3.48 133.94-2.8 135.49-2.8ZM157.48 0.6L157.48 0.6Q155.13 0.6 154.13-0.8 153.13-2.2 153.13-4.9L153.13-4.9 153.13-35.6 157.23-35.6 157.23-4.6Q157.23-3.6 157.58-3.2 157.93-2.8 158.38-2.8L158.38-2.8Q158.58-2.8 158.76-2.8 158.93-2.8 159.28-2.9L159.28-2.9 159.83 0.2Q159.43 0.4 158.88 0.5 158.33 0.6 157.48 0.6ZM174.08 11.2L174.08 11.2Q171.83 11.2 169.98 10.78 168.13 10.35 166.81 9.5 165.48 8.65 164.76 7.45 164.03 6.25 164.03 4.65L164.03 4.65Q164.03 3.1 164.98 1.7 165.93 0.3 167.58-0.85L167.58-0.85 167.58-1.05Q166.68-1.6 166.06-2.58 165.43-3.55 165.43-5L165.43-5Q165.43-6.55 166.28-7.7 167.13-8.85 168.08-9.5L168.08-9.5 168.08-9.7Q166.88-10.7 165.91-12.38 164.93-14.05 164.93-16.25L164.93-16.25Q164.93-18.25 165.66-19.85 166.38-21.45 167.63-22.58 168.88-23.7 170.56-24.3 172.23-24.9 174.08-24.9L174.08-24.9Q175.08-24.9 175.96-24.73 176.83-24.55 177.53-24.3L177.53-24.3 185.98-24.3 185.98-21.15 180.98-21.15Q181.83-20.3 182.41-19 182.98-17.7 182.98-16.15L182.98-16.15Q182.98-14.2 182.28-12.63 181.58-11.05 180.38-9.98 179.18-8.9 177.56-8.3 175.93-7.7 174.08-7.7L174.08-7.7Q173.18-7.7 172.23-7.93 171.28-8.15 170.43-8.55L170.43-8.55Q169.78-8 169.33-7.33 168.88-6.65 168.88-5.65L168.88-5.65Q168.88-4.5 169.78-3.75 170.68-3 173.18-3L173.18-3 177.88-3Q182.13-3 184.26-1.63 186.38-0.25 186.38 2.8L186.38 2.8Q186.38 4.5 185.53 6.03 184.68 7.55 183.08 8.7 181.48 9.85 179.21 10.53 176.93 11.2 174.08 11.2ZM174.08-10.45L174.08-10.45Q175.13-10.45 176.06-10.85 176.98-11.25 177.71-12 178.43-12.75 178.83-13.83 179.23-14.9 179.23-16.25L179.23-16.25Q179.23-18.95 177.73-20.43 176.23-21.9 174.08-21.9L174.08-21.9Q171.93-21.9 170.43-20.43 168.93-18.95 168.93-16.25L168.93-16.25Q168.93-14.9 169.33-13.83 169.73-12.75 170.46-12 171.18-11.25 172.11-10.85 173.03-10.45 174.08-10.45ZM174.68 8.35L174.68 8.35Q176.43 8.35 177.86 7.93 179.28 7.5 180.28 6.83 181.28 6.15 181.83 5.25 182.38 4.35 182.38 3.4L182.38 3.4Q182.38 1.7 181.13 1.05 179.88 0.4 177.48 0.4L177.48 0.4 173.28 0.4Q172.58 0.4 171.76 0.33 170.93 0.25 170.13 0L170.13 0Q168.83 0.95 168.23 2 167.63 3.05 167.63 4.1L167.63 4.1Q167.63 6.05 169.51 7.2 171.38 8.35 174.68 8.35Z" opacity="1" transform="matrix(1,0,0,1,0,0)" fill="#ffffff" class="wordmark-text-0" data-fill-palette-color="primary" id="text-0"></path></svg></g></svg></g><g transform="matrix(1,0,0,1,0,60.33071431613254)"><svg viewBox="0 0 192 30.163502444323736" height="30.163502444323736" width="192"><g transform="matrix(1,0,0,1,0,0)"><svg width="192" viewBox="4.31 -31.38 258.27 40.58" height="30.163502444323736" data-palette-color="#d3d3d3"><path d="M13.97-13.68L8.16-13.68 8.16-1.9Q8.16-0.52 6.9-0.11L6.9-0.11Q6.55 0 6.03 0 5.52 0 4.91-0.46 4.31-0.92 4.31-1.9L4.31-1.9 4.31-29.43Q4.31-30.57 5.52-31.21L5.52-31.21Q5.86-31.38 6.32-31.38L6.32-31.38 14.14-31.38Q23.91-31.38 26.03-25.4L26.03-25.4Q26.55-24.02 26.55-22.47 26.55-20.92 26.09-19.6 25.63-18.28 24.77-17.24 23.91-16.21 22.7-15.57 21.49-14.94 20.11-14.48L20.11-14.48Q17.41-13.68 13.97-13.68L13.97-13.68ZM8.16-16.78L14.66-16.78Q18.39-16.78 20.17-18.05L20.17-18.05Q22.53-19.54 22.53-22.59L22.53-22.59Q22.53-25.52 20.17-27.01L20.17-27.01Q18.39-28.16 14.71-28.28L14.71-28.28 8.16-28.28 8.16-16.78ZM47.19-1.61L47.19-14.14Q47.19-16.78 45.7-18.28L45.7-18.28Q44.38-19.54 42.63-19.54 40.87-19.54 39.67-19.14 38.46-18.74 37.54-17.82L37.54-17.82Q35.59-15.98 35.59-12.59L35.59-12.59 35.59-1.61Q35.59-0.8 35.01-0.4 34.44 0 33.75 0L33.75 0Q33.06 0 32.6-0.43 32.14-0.86 32.14-1.61L32.14-1.61 32.14-29.66Q32.14-30.46 32.71-30.86 33.29-31.26 33.86-31.26L33.86-31.26Q34.55-31.26 35.07-30.89 35.59-30.52 35.59-29.66L35.59-29.66 35.59-18.1Q36.39-20.11 38.57-21.21L38.57-21.21Q40.59-22.24 42.57-22.24 44.55-22.24 45.93-21.75 47.31-21.26 48.46-20.34L48.46-20.34Q50.76-18.16 50.76-13.91L50.76-13.91 50.76-1.61Q50.76-0.8 50.15-0.4 49.55 0 48.92 0L48.92 0Q48.23 0 47.71-0.43 47.19-0.86 47.19-1.61L47.19-1.61ZM56.63-10.86L56.63-10.86Q56.63-12.93 57.29-15 57.95-17.07 59.33-18.74L59.33-18.74Q62.21-22.24 67.49-22.24 72.78-22.24 75.65-18.74L75.65-18.74Q78.36-15.4 78.36-10.92L78.36-10.92Q78.36-6.38 75.65-3.1L75.65-3.1Q72.78 0.46 67.49 0.46 62.21 0.46 59.33-3.1L59.33-3.1Q56.63-6.32 56.63-10.86ZM60.37-10.86L60.37-10.86Q60.37-9.48 60.74-7.93 61.11-6.38 62.09-5.06L62.09-5.06Q64.04-2.24 67.49-2.24L67.49-2.24Q71.11-2.24 72.9-5.06L72.9-5.06Q74.56-7.7 74.56-10.92L74.56-10.92Q74.56-14.25 72.9-16.67L72.9-16.67Q71.06-19.54 67.49-19.54L67.49-19.54Q64.04-19.54 62.09-16.67L62.09-16.67Q60.37-14.31 60.37-10.86ZM95.78-1.26L95.78-1.26Q95.78 0.46 91.7 0.46L91.7 0.46Q88.65 0.46 87.39-1.21L87.39-1.21Q86.01-2.99 85.89-7.07L85.89-7.07 85.89-19.14 83.37-19.14Q82.68-19.14 82.27-19.57 81.87-20 81.87-20.46L81.87-20.46Q81.87-20.92 82.22-21.38 82.56-21.84 83.37-21.84L83.37-21.84 86.12-21.84 86.35-28.05Q86.47-28.74 86.99-29.11 87.5-29.48 88.08-29.48 88.65-29.48 89.06-29.14 89.46-28.79 89.46-28.05L89.46-28.05 89.46-21.84 93.42-21.84Q94.11-21.84 94.49-21.38 94.86-20.92 94.86-20.46L94.86-20.46Q94.86-19.89 94.49-19.51 94.11-19.14 93.42-19.14L93.42-19.14 89.46-19.14 89.46-8.97Q89.46-4.71 89.75-3.82 90.03-2.93 90.67-2.59 91.3-2.24 92.22-2.24L92.22-2.24 94.46-2.41Q95.09-2.41 95.44-2.01 95.78-1.61 95.78-1.26ZM98.84-10.86L98.84-10.86Q98.84-12.93 99.5-15 100.16-17.07 101.54-18.74L101.54-18.74Q104.41-22.24 109.7-22.24 114.99-22.24 117.86-18.74L117.86-18.74Q120.56-15.4 120.56-10.92L120.56-10.92Q120.56-6.38 117.86-3.1L117.86-3.1Q114.99 0.46 109.7 0.46 104.41 0.46 101.54-3.1L101.54-3.1Q98.84-6.32 98.84-10.86ZM102.57-10.86L102.57-10.86Q102.57-9.48 102.95-7.93 103.32-6.38 104.3-5.06L104.3-5.06Q106.25-2.24 109.7-2.24L109.7-2.24Q113.32-2.24 115.1-5.06L115.1-5.06Q116.77-7.7 116.77-10.92L116.77-10.92Q116.77-14.25 115.1-16.67L115.1-16.67Q113.26-19.54 109.7-19.54L109.7-19.54Q106.25-19.54 104.3-16.67L104.3-16.67Q102.57-14.31 102.57-10.86ZM135.23-19.48L135.23-19.48Q128.79-19.48 128.79-10.92L128.79-10.92Q128.79-6.9 130.8-4.6L130.8-4.6Q132.53-2.59 135.28-2.53L135.28-2.53Q138.1-2.53 140.05-4.66L140.05-4.66Q142.12-6.9 142.12-10.8L142.12-10.8Q142.12-16.67 138.45-18.74L138.45-18.74Q137.18-19.48 135.23-19.48ZM134.31-22.24L134.31-22.24Q139.94-22.24 142.24-17.93L142.24-17.93 142.24-20.34Q142.35-21.03 142.81-21.44 143.27-21.84 143.91-21.84 144.54-21.84 145.05-21.38 145.57-20.92 145.57-20.17L145.57-20.17 145.57 0.46Q145.57 4.94 142.7 7.13L142.7 7.13Q140.11 9.2 135.23 9.2L135.23 9.2Q130.86 9.2 128.68 7.7L128.68 7.7Q126.95 6.44 126.95 5.63L126.95 5.63Q126.95 5.06 127.32 4.68 127.7 4.31 128.19 4.31 128.68 4.31 129.14 4.63 129.6 4.94 130.23 5.23 130.86 5.52 131.49 5.75L131.49 5.75Q133.16 6.32 134.91 6.32 136.66 6.32 137.96 6.03 139.25 5.75 140.17 5.06L140.17 5.06Q142.12 3.79 142.12 0.69L142.12 0.69 142.12-4.31Q140.46-1.15 136.84-0.23L136.84-0.23Q135.69 0 134.6 0L134.6 0Q129.82 0 127.3-3.28L127.3-3.28Q124.94-6.21 124.94-10.8L124.94-10.8Q124.94-15.69 127.3-18.79L127.3-18.79Q129.77-22.24 134.31-22.24ZM156.04-20.11L156.04-18.16Q157.42-22.24 162.08-22.24L162.08-22.24Q162.94-22.24 163.37-21.75 163.8-21.26 163.8-20.72 163.8-20.17 163.37-19.68 162.94-19.2 161.79-19.2 160.64-19.2 159.49-18.74 158.34-18.28 157.59-17.41L157.59-17.41Q156.04-15.52 156.04-12.41L156.04-12.41 156.04-1.61Q156.04-0.8 155.47-0.4 154.89 0 154.43 0 153.97 0 153.69-0.09 153.4-0.17 153.11-0.46L153.11-0.46Q152.59-0.8 152.59-1.61L152.59-1.61 152.59-20.11Q152.59-20.86 153.11-21.35 153.63-21.84 154.4-21.84 155.18-21.84 155.61-21.35 156.04-20.86 156.04-20.11L156.04-20.11ZM179.16-13.28L179.16-13.28Q180.36-13.28 181.57-13.22L181.57-13.22 181.57-15.06Q181.57-19.54 176.57-19.54L176.57-19.54Q174.33-19.54 173.3-19.14L173.3-19.14Q171.46-18.45 170.65-17.96 169.85-17.47 169.39-17.47 168.93-17.47 168.53-17.82 168.12-18.16 168.12-18.74L168.12-18.74Q168.12-19.2 168.64-19.66L168.64-19.66Q171.34-22.24 176.63-22.24L176.63-22.24Q182.72-22.24 184.44-18.16L184.44-18.16Q185.02-16.72 185.02-14.83L185.02-14.83 184.9-1.55Q184.9-0.8 184.39-0.4 183.87 0 183.24 0 182.61 0 182.09-0.34 181.57-0.69 181.57-1.49L181.57-1.49 181.57-3.56Q180.19-0.57 176.63 0.17L176.63 0.17Q175.54 0.46 174.16 0.46 172.78 0.46 171.43 0.06 170.08-0.34 169.04-1.21L169.04-1.21Q166.92-2.99 166.92-6.03L166.92-6.03Q166.92-13.28 179.16-13.28ZM181.57-8.74L181.57-10.69Q180.65-10.57 179.44-10.57 178.24-10.57 176.97-10.55 175.71-10.52 174.56-10.26 173.41-10 172.49-9.48L172.49-9.48Q170.54-8.45 170.42-6.09L170.42-6.09Q170.42-4.25 171.92-3.22L171.92-3.22Q173.07-2.3 175.19-2.24L175.19-2.24Q177.78-2.24 179.67-3.91L179.67-3.91Q181.4-5.52 181.57-8.74L181.57-8.74ZM195.43-18.1L195.43-18.1Q197.67-22.24 203.25-22.24L203.25-22.24Q207.85-22.24 210.26-18.74L210.26-18.74Q212.44-15.52 212.44-10.8L212.44-10.8Q212.44-5.98 210.15-2.93L210.15-2.93Q207.67 0.52 203.19 0.46L203.19 0.46Q199.4 0.46 196.98-1.84L196.98-1.84Q196.12-2.59 195.43-3.62L195.43-3.62 195.43 6.72Q195.43 7.59 194.86 7.99 194.28 8.39 193.71 8.39L193.71 8.39Q193.02 8.39 192.44 7.93 191.87 7.47 191.87 6.72L191.87 6.72 191.87-20.17Q191.87-21.03 192.39-21.44 192.9-21.84 193.88-21.84L193.88-21.84Q195.78-21.84 195.43-18.1ZM196.84-17.01Q196.01-15.86 195.72-14.25 195.43-12.64 195.43-10.89 195.43-9.14 195.83-7.61 196.24-6.09 197.04-4.83L197.04-4.83Q198.88-2.18 202.33-2.24L202.33-2.24Q205.66-2.24 207.39-5L207.39-5Q208.71-7.24 208.71-10.92L208.71-10.92Q208.71-16.72 205.43-18.74L205.43-18.74Q204.23-19.48 202.3-19.51 200.38-19.54 199.02-18.85 197.67-18.16 196.84-17.01ZM233.49-1.61L233.49-14.14Q233.49-16.78 232-18.28L232-18.28Q230.67-19.54 228.92-19.54 227.17-19.54 225.96-19.14 224.75-18.74 223.83-17.82L223.83-17.82Q221.88-15.98 221.88-12.59L221.88-12.59 221.88-1.61Q221.88-0.8 221.31-0.4 220.73 0 220.04 0L220.04 0Q219.35 0 218.89-0.43 218.43-0.86 218.43-1.61L218.43-1.61 218.43-29.66Q218.43-30.46 219.01-30.86 219.58-31.26 220.16-31.26L220.16-31.26Q220.85-31.26 221.36-30.89 221.88-30.52 221.88-29.66L221.88-29.66 221.88-18.1Q222.68-20.11 224.87-21.21L224.87-21.21Q226.88-22.24 228.86-22.24 230.85-22.24 232.23-21.75 233.6-21.26 234.75-20.34L234.75-20.34Q237.05-18.16 237.05-13.91L237.05-13.91 237.05-1.61Q237.05-0.8 236.45-0.4 235.85 0 235.21 0L235.21 0Q234.52 0 234.01-0.43 233.49-0.86 233.49-1.61L233.49-1.61ZM248.1 6.32L250.68-0.17 242.24-19.48Q242.06-19.83 242.06-20.17 242.06-20.52 242.24-20.83 242.41-21.15 242.64-21.26L242.64-21.26Q243.33-21.72 243.96-21.84L243.96-21.84Q245.17-21.84 245.68-20.69L245.68-20.69 252.52-4.14 259.31-20.69Q259.82-21.84 260.66-21.84 261.49-21.84 262.03-21.35 262.58-20.86 262.58-20.34 262.58-19.83 262.41-19.48L262.41-19.48 251.37 7.36Q250.86 8.51 249.76 8.51L249.76 8.51Q249.08 8.51 248.62 8.16L248.62 8.16Q247.93 7.59 247.93 7.07 247.93 6.55 248.1 6.32L248.1 6.32Z" opacity="1" transform="matrix(1,0,0,1,0,0)" fill="#ffffff" class="slogan-text-1" data-fill-palette-color="secondary" id="text-1"></path></svg></g></svg></g></svg></g></svg></g><g></g></svg></g></svg></g></svg></g></svg></g><defs></defs></svg><rect width="320" height="360" fill="none" stroke="none" visibility="hidden"></rect></g></svg></g></svg>