<svg xmlns="http://www.w3.org/2000/svg" version="1.1" xmlns:xlink="http://www.w3.org/1999/xlink" xmlns:svgjs="http://svgjs.dev/svgjs" width="1000" height="1000" viewBox="0 0 1000 1000"><rect width="1000" height="1000" fill="#ffffff"></rect><g transform="matrix(0.7,0,0,0.7,149.57575757575756,380.8355396011469)"><svg viewBox="0 0 396 135" data-background-color="#ffffff" preserveAspectRatio="xMidYMid meet" height="340" width="1000" xmlns="http://www.w3.org/2000/svg" xmlns:xlink="http://www.w3.org/1999/xlink"><g id="tight-bounds" transform="matrix(1,0,0,1,0.2400000000000091,0.09328636069400886)"><svg viewBox="0 0 395.52 134.81314847229748" height="134.81314847229748" width="395.52"><g><svg viewBox="0 0 633.8486209048168 216.0475531932698" height="134.81314847229748" width="395.52"><g transform="matrix(1,0,0,1,238.32862090481683,64.27643156965816)"><svg viewBox="0 0 395.52 87.49469005395349" height="87.49469005395349" width="395.52"><g id="textblocktransform"><svg viewBox="0 0 395.52 87.49469005395349" height="87.49469005395349" width="395.52" id="textblock"><g><svg viewBox="0 0 395.52 47.19045500505561" height="47.19045500505561" width="395.52"><g transform="matrix(1,0,0,1,0,0)"><svg width="395.52" viewBox="1.15 -31.01 264.38 31.69" height="47.19045500505561" data-palette-color="#0c0a09"><g class="wordmark-text-0" data-fill-palette-color="primary" id="text-0"><path d="M16.04 0.66Q21.14 0.66 24.98-1.32 28.81-3.3 30.88-6.85 32.96-10.4 32.96-15.04L32.96-15.04Q32.96-20.07 31.14-23.66 29.32-27.25 25.89-29.13 22.46-31.01 17.75-31.01L17.75-31.01Q12.55-31.01 8.8-29.02 5.05-27.03 3.1-23.43 1.15-19.82 1.15-15.11L1.15-15.11Q1.15-10.5 2.82-6.93 4.49-3.37 7.85-1.35 11.21 0.66 16.04 0.66L16.04 0.66ZM16.58-27.71Q19.63-27.71 21.53-25.51 23.44-23.32 24.26-20.18 25.07-17.04 25.07-13.99L25.07-13.99Q25.07-2.95 17.29-2.95L17.29-2.95Q14.28-2.95 12.39-5.08 10.5-7.2 9.68-10.3 8.86-13.4 8.86-16.46L8.86-16.46Q8.86-21.73 10.62-24.72 12.38-27.71 16.58-27.71L16.58-27.71ZM44.97 0.59Q47.7 0.59 50.51-0.48 53.32-1.54 55.2-3.7 57.08-5.86 57.08-8.98L57.08-8.98Q57.08-11.52 55.8-13.33 54.51-15.14 52.73-16.26 50.95-17.38 48.07-18.75L48.07-18.75Q45.92-19.75 44.72-20.45 43.53-21.14 42.72-22.08 41.92-23.02 41.92-24.22L41.92-24.22Q41.92-25.9 42.88-26.82 43.85-27.73 45.43-27.73L45.43-27.73Q46.82-27.73 48.18-27.01 49.53-26.29 50.12-25.34L50.12-25.34 50.9-21.29 54.22-20.75Q54.32-21.92 54.59-25.15 54.86-28.37 54.86-28.61L54.86-28.61Q53.71-29.64 51.43-30.3 49.14-30.96 47.09-30.96L47.09-30.96Q44.19-30.96 41.59-29.9 38.99-28.83 37.36-26.72 35.74-24.61 35.74-21.63L35.74-21.63Q35.74-19.07 36.97-17.27 38.21-15.48 39.9-14.4 41.6-13.33 44.36-12.01L44.36-12.01Q46.31-11.08 47.42-10.44 48.53-9.79 49.28-8.92 50.02-8.06 50.02-6.93L50.02-6.93Q50.02-5.76 49.4-4.91 48.78-4.05 47.75-3.6 46.73-3.15 45.58-3.15L45.58-3.15Q43.97-3.15 42.5-3.85 41.04-4.54 40.31-5.62L40.31-5.62 39.33-10.18 35.91-10.69 35.35-3.03Q36.47-1.46 39.07-0.44 41.67 0.59 44.97 0.59L44.97 0.59ZM75.09 0.63Q77.75 0.63 80.18-0.1 82.61-0.83 84.44-1.97 86.27-3.1 87.3-4.3L87.3-4.3 86.13-6.86Q84.32-5.54 82.16-4.7 80-3.86 77.63-3.86L77.63-3.86Q74.38-3.86 71.92-5.35 69.45-6.84 68.07-9.72 66.69-12.6 66.69-16.65L66.69-16.65Q66.69-20.14 67.76-22.62 68.82-25.1 70.77-26.37 72.72-27.64 75.34-27.64L75.34-27.64Q77.14-27.64 78.72-27 80.29-26.37 81.15-25.29L81.15-25.29 82.42-19.78 85.59-19.34 86.32-28.56Q84.83-29.71 82.12-30.36 79.41-31.01 76.8-31.01L76.8-31.01Q70.72-31.01 66.78-28.47 62.84-25.93 61.05-22.09 59.27-18.26 59.27-14.31L59.27-14.31Q59.27-9.62 61.25-6.25 63.23-2.88 66.79-1.12 70.36 0.63 75.09 0.63L75.09 0.63ZM89.3 0L102.39 0 102.7-2.78 98.14-4.44 99.94-9.57 109.83-9.57 111.64-4.49 107.51-2.56 107.17 0.02 122.31 0.02 122.58-2.73 119.08-4.42 109.56-30.98 103.51-29.81 93.4-4.52 89.64-2.59 89.3 0ZM101.26-13.38L105.05-24.02 108.61-13.38 101.26-13.38ZM140.32 0L140.59-2.91 136.56-4.35 136.56-12.16 139.59-12.16 142.62-6.54Q144.42-3.13 146.79-1.27 149.16 0.59 152.63 0.59L152.63 0.59Q154.95 0.59 156.75 0L156.75 0 157.31-2.44 156.44-2.69Q154.85-3.1 153.64-3.96 152.43-4.81 151.45-5.94 150.48-7.08 148.96-9.13L148.96-9.13 145.28-14.16Q147.11-14.79 148.68-16.08 150.26-17.36 151.2-19.07 152.14-20.78 152.14-22.61L152.14-22.61Q152.14-26.93 148.77-28.77 145.4-30.62 138.86-30.62L138.86-30.62Q136.29-30.62 132.36-30.25 128.43-29.88 125.53-29.42L125.53-29.42 125.26-26.51 129.68-25.59 129.68-4.13 125.33-2.59 124.97 0 140.32 0ZM136.56-27.32Q136.66-27.32 137.18-27.36 137.71-27.39 138.42-27.39L138.42-27.39Q140.35-27.39 141.77-26.6 143.2-25.81 143.96-24.43 144.72-23.05 144.72-21.34L144.72-21.34Q144.72-19.31 143.65-17.94 142.59-16.58 140.83-15.82L140.83-15.82 136.56-15.82 136.56-27.32Z" fill="#0c0a09" data-fill-palette-color="primary"></path><path d="M185.75 0.66Q190.85 0.66 194.69-1.32 198.52-3.3 200.59-6.85 202.67-10.4 202.67-15.04L202.67-15.04Q202.67-20.07 200.85-23.66 199.03-27.25 195.6-29.13 192.17-31.01 187.46-31.01L187.46-31.01Q182.26-31.01 178.51-29.02 174.76-27.03 172.81-23.43 170.86-19.82 170.86-15.11L170.86-15.11Q170.86-10.5 172.53-6.93 174.2-3.37 177.56-1.35 180.92 0.66 185.75 0.66L185.75 0.66ZM186.29-27.71Q189.34-27.71 191.24-25.51 193.15-23.32 193.97-20.18 194.78-17.04 194.78-13.99L194.78-13.99Q194.78-2.95 187-2.95L187-2.95Q183.99-2.95 182.1-5.08 180.21-7.2 179.39-10.3 178.57-13.4 178.57-16.46L178.57-16.46Q178.57-21.73 180.33-24.72 182.09-27.71 186.29-27.71L186.29-27.71ZM205.08 0L230.74 0 231.77-9.28 228.69-9.72 224.98-3.34 216.29-3.61 216.29-25.88 220.78-27.66 221.15-30.37 205.35-30.37 204.96-27.66 209.36-25.83 209.36-4.13 205.4-2.59 205.08 0ZM250.3 0.68Q253.57 0.68 256.96-0.1 260.35-0.88 262.33-2.1L262.33-2.1 262.33-9.79 265.12-11.18 265.53-13.99 250.69-13.99 250.27-10.89 255.84-9.62 255.84-4.32Q255.06-3.78 253.95-3.45 252.83-3.13 251.49-3.13L251.49-3.13Q248.46-3.13 246.22-4.88 243.97-6.64 242.78-9.67 241.58-12.7 241.58-16.41L241.58-16.41Q241.58-20.21 242.69-22.68 243.8-25.15 245.71-26.29 247.61-27.44 250.08-27.44L250.08-27.44Q252.47-27.44 254.28-26.65 256.08-25.85 257.2-24.73L257.2-24.73 258.13-19.73 261.5-19.38 262.28-28.66Q259.94-29.71 257.44-30.31 254.93-30.91 251.27-30.91L251.27-30.91Q246.85-30.91 242.87-28.89 238.89-26.88 236.43-23.07 233.96-19.26 233.96-14.14L233.96-14.14Q233.96-9.59 235.78-6.26 237.6-2.93 241.26-1.12 244.92 0.68 250.3 0.68L250.3 0.68Z" fill="#57534e" data-fill-palette-color="secondary"></path></g></svg></g></svg></g><g transform="matrix(1,0,0,1,0,58.33098886082912)"><svg viewBox="0 0 193.11555652570738 29.163701193124368" height="29.163701193124368" width="193.11555652570738"><g transform="matrix(1,0,0,1,0,0)"><svg width="193.11555652570738" viewBox="4.5 -39.05 337.35959179375504 50.949999999999996" height="29.163701193124368" data-palette-color="#57534e"><path d="M6.45 11.7L6.45 11.7Q5.55 11.7 5.03 11.18 4.5 10.65 4.5 9.75L4.5 9.75 4.5-13.85Q4.55-17.75 6.38-20.88 8.2-24 11.33-25.8 14.45-27.6 18.35-27.6L18.35-27.6Q22.35-27.6 25.5-25.78 28.65-23.95 30.48-20.8 32.3-17.65 32.3-13.65L32.3-13.65Q32.3-9.7 30.53-6.55 28.75-3.4 25.7-1.58 22.65 0.25 18.8 0.25L18.8 0.25Q15.45 0.25 12.73-1.18 10-2.6 8.35-4.95L8.35-4.95 8.35 9.75Q8.35 10.65 7.83 11.18 7.3 11.7 6.45 11.7ZM18.35-3.25L18.35-3.25Q21.25-3.25 23.55-4.6 25.85-5.95 27.18-8.33 28.5-10.7 28.5-13.65L28.5-13.65Q28.5-16.65 27.18-19 25.85-21.35 23.55-22.73 21.25-24.1 18.35-24.1L18.35-24.1Q15.5-24.1 13.2-22.73 10.9-21.35 9.6-19 8.3-16.65 8.3-13.65L8.3-13.65Q8.3-10.7 9.6-8.33 10.9-5.95 13.2-4.6 15.5-3.25 18.35-3.25ZM63.3 0L63.3 0Q62.45 0 61.9-0.55 61.35-1.1 61.35-1.9L61.35-1.9 61.35-14.9Q61.35-18 60.17-20 59-22 56.97-23 54.95-24 52.4-24L52.4-24Q49.95-24 47.97-23.05 46-22.1 44.85-20.45 43.7-18.8 43.7-16.7L43.7-16.7 40.95-16.7Q41.05-19.85 42.65-22.33 44.25-24.8 46.9-26.23 49.55-27.65 52.8-27.65L52.8-27.65Q56.35-27.65 59.15-26.18 61.95-24.7 63.57-21.85 65.2-19 65.2-14.9L65.2-14.9 65.2-1.9Q65.2-1.1 64.65-0.55 64.1 0 63.3 0ZM41.8 0L41.8 0Q40.9 0 40.37-0.53 39.85-1.05 39.85-1.9L39.85-1.9 39.85-25.4Q39.85-26.3 40.37-26.83 40.9-27.35 41.8-27.35L41.8-27.35Q42.65-27.35 43.17-26.83 43.7-26.3 43.7-25.4L43.7-25.4 43.7-1.9Q43.7-1.05 43.17-0.53 42.65 0 41.8 0ZM41.8-11.15L41.8-11.15Q40.9-11.15 40.37-11.7 39.85-12.25 39.85-13.1L39.85-13.1 39.85-37.1Q39.85-38 40.37-38.53 40.9-39.05 41.8-39.05L41.8-39.05Q42.65-39.05 43.17-38.53 43.7-38 43.7-37.1L43.7-37.1 43.7-13.1Q43.7-12.25 43.17-11.7 42.65-11.15 41.8-11.15ZM86.15 0.25L86.15 0.25Q82.15 0.25 79-1.55 75.85-3.35 74.05-6.5 72.25-9.65 72.25-13.65L72.25-13.65Q72.25-17.7 74.05-20.85 75.85-24 79-25.8 82.15-27.6 86.15-27.6L86.15-27.6Q90.15-27.6 93.27-25.8 96.4-24 98.2-20.85 100-17.7 100.05-13.65L100.05-13.65Q100.05-9.65 98.22-6.5 96.4-3.35 93.27-1.55 90.15 0.25 86.15 0.25ZM86.15-3.25L86.15-3.25Q89.05-3.25 91.35-4.6 93.65-5.95 94.95-8.3 96.25-10.65 96.25-13.65L96.25-13.65Q96.25-16.65 94.95-19.03 93.65-21.4 91.35-22.75 89.05-24.1 86.15-24.1L86.15-24.1Q83.25-24.1 80.95-22.75 78.65-21.4 77.32-19.03 76-16.65 76-13.65L76-13.65Q76-10.65 77.32-8.3 78.65-5.95 80.95-4.6 83.25-3.25 86.15-3.25ZM119.29 0L118.24 0Q115.59 0 113.52-1.25 111.44-2.5 110.24-4.67 109.04-6.85 109.04-9.65L109.04-9.65 109.04-34.1Q109.04-34.95 109.57-35.5 110.09-36.05 110.94-36.05L110.94-36.05Q111.79-36.05 112.34-35.5 112.89-34.95 112.89-34.1L112.89-34.1 112.89-9.65Q112.89-7.1 114.39-5.48 115.89-3.85 118.24-3.85L118.24-3.85 119.59-3.85Q120.39-3.85 120.89-3.3 121.39-2.75 121.39-1.9L121.39-1.9Q121.39-1.05 120.79-0.53 120.19 0 119.29 0L119.29 0ZM118.54-23L105.79-23Q105.04-23 104.54-23.48 104.04-23.95 104.04-24.65L104.04-24.65Q104.04-25.4 104.54-25.88 105.04-26.35 105.79-26.35L105.79-26.35 118.54-26.35Q119.29-26.35 119.79-25.88 120.29-25.4 120.29-24.65L120.29-24.65Q120.29-23.95 119.79-23.48 119.29-23 118.54-23L118.54-23ZM140.09 0.25L140.09 0.25Q136.09 0.25 132.94-1.55 129.79-3.35 127.99-6.5 126.19-9.65 126.19-13.65L126.19-13.65Q126.19-17.7 127.99-20.85 129.79-24 132.94-25.8 136.09-27.6 140.09-27.6L140.09-27.6Q144.09-27.6 147.22-25.8 150.34-24 152.14-20.85 153.94-17.7 153.99-13.65L153.99-13.65Q153.99-9.65 152.17-6.5 150.34-3.35 147.22-1.55 144.09 0.25 140.09 0.25ZM140.09-3.25L140.09-3.25Q142.99-3.25 145.29-4.6 147.59-5.95 148.89-8.3 150.19-10.65 150.19-13.65L150.19-13.65Q150.19-16.65 148.89-19.03 147.59-21.4 145.29-22.75 142.99-24.1 140.09-24.1L140.09-24.1Q137.19-24.1 134.89-22.75 132.59-21.4 131.27-19.03 129.94-16.65 129.94-13.65L129.94-13.65Q129.94-10.65 131.27-8.3 132.59-5.95 134.89-4.6 137.19-3.25 140.09-3.25ZM173.54 0.25L173.54 0.25Q169.59 0.25 166.54-1.53 163.49-3.3 161.76-6.45 160.04-9.6 160.04-13.65L160.04-13.65Q160.04-17.75 161.84-20.9 163.64-24.05 166.79-25.83 169.94-27.6 173.94-27.6L173.94-27.6Q177.99-27.6 181.11-25.83 184.24-24.05 186.01-20.9 187.79-17.75 187.84-13.65L187.84-13.65 185.59-12.45Q185.59-8.75 184.04-5.88 182.49-3 179.76-1.38 177.04 0.25 173.54 0.25ZM174.04 10.8L174.04 10.8Q170.09 10.8 167.09 9.33 164.09 7.85 162.14 5.3L162.14 5.3Q161.59 4.7 161.66 4 161.74 3.3 162.39 2.85L162.39 2.85Q163.04 2.4 163.84 2.55 164.64 2.7 165.09 3.3L165.09 3.3Q166.54 5.1 168.81 6.2 171.09 7.3 174.09 7.3L174.09 7.3Q176.89 7.3 179.14 5.95 181.39 4.6 182.71 2.15 184.04-0.3 184.04-3.6L184.04-3.6 184.04-11.2 185.49-14.1 187.84-13.65 187.84-3.45Q187.84 0.6 186.04 3.83 184.24 7.05 181.14 8.93 178.04 10.8 174.04 10.8ZM173.94-3.25L173.94-3.25Q176.89-3.25 179.16-4.58 181.44-5.9 182.74-8.25 184.04-10.6 184.04-13.65L184.04-13.65Q184.04-16.7 182.74-19.07 181.44-21.45 179.16-22.78 176.89-24.1 173.94-24.1L173.94-24.1Q170.99-24.1 168.69-22.78 166.39-21.45 165.09-19.07 163.79-16.7 163.79-13.65L163.79-13.65Q163.79-10.6 165.09-8.25 166.39-5.9 168.69-4.58 170.99-3.25 173.94-3.25ZM199.14-16.85L196.94-16.85Q197.09-19.95 198.56-22.4 200.03-24.85 202.41-26.25 204.78-27.65 207.69-27.65L207.69-27.65Q209.99-27.65 211.24-27 212.49-26.35 212.19-25.1L212.19-25.1Q211.99-24.35 211.51-24.1 211.04-23.85 210.36-23.9 209.69-23.95 208.84-24L208.84-24Q206.03-24.25 203.86-23.43 201.69-22.6 200.41-20.9 199.14-19.2 199.14-16.85L199.14-16.85ZM197.24 0L197.24 0Q196.34 0 195.84-0.5 195.34-1 195.34-1.9L195.34-1.9 195.34-25.45Q195.34-26.35 195.84-26.85 196.34-27.35 197.24-27.35L197.24-27.35Q198.14-27.35 198.64-26.85 199.14-26.35 199.14-25.45L199.14-25.45 199.14-1.9Q199.14-1 198.64-0.5 198.14 0 197.24 0ZM228.28 0.25L228.28 0.25Q224.43 0.25 221.38-1.58 218.33-3.4 216.56-6.55 214.78-9.7 214.78-13.65L214.78-13.65Q214.78-17.65 216.61-20.8 218.43-23.95 221.58-25.78 224.73-27.6 228.68-27.6L228.68-27.6Q232.63-27.6 235.76-25.78 238.88-23.95 240.71-20.8 242.53-17.65 242.58-13.65L242.58-13.65 241.03-12.45Q241.03-8.85 239.36-5.98 237.68-3.1 234.81-1.43 231.93 0.25 228.28 0.25ZM228.68-3.25L228.68-3.25Q231.58-3.25 233.86-4.6 236.13-5.95 237.46-8.33 238.78-10.7 238.78-13.65L238.78-13.65Q238.78-16.65 237.46-19 236.13-21.35 233.86-22.73 231.58-24.1 228.68-24.1L228.68-24.1Q225.83-24.1 223.53-22.73 221.23-21.35 219.88-19 218.53-16.65 218.53-13.65L218.53-13.65Q218.53-10.7 219.88-8.33 221.23-5.95 223.53-4.6 225.83-3.25 228.68-3.25ZM240.63 0L240.63 0Q239.78 0 239.23-0.53 238.68-1.05 238.68-1.9L238.68-1.9 238.68-10.45 239.63-14.4 242.58-13.65 242.58-1.9Q242.58-1.05 242.03-0.53 241.48 0 240.63 0ZM252.03 11.7L252.03 11.7Q251.13 11.7 250.61 11.18 250.08 10.65 250.08 9.75L250.08 9.75 250.08-13.85Q250.13-17.75 251.96-20.88 253.78-24 256.91-25.8 260.03-27.6 263.93-27.6L263.93-27.6Q267.93-27.6 271.08-25.78 274.23-23.95 276.06-20.8 277.88-17.65 277.88-13.65L277.88-13.65Q277.88-9.7 276.11-6.55 274.33-3.4 271.28-1.58 268.23 0.25 264.38 0.25L264.38 0.25Q261.03 0.25 258.31-1.18 255.58-2.6 253.93-4.95L253.93-4.95 253.93 9.75Q253.93 10.65 253.41 11.18 252.88 11.7 252.03 11.7ZM263.93-3.25L263.93-3.25Q266.83-3.25 269.13-4.6 271.43-5.95 272.75-8.33 274.08-10.7 274.08-13.65L274.08-13.65Q274.08-16.65 272.75-19 271.43-21.35 269.13-22.73 266.83-24.1 263.93-24.1L263.93-24.1Q261.08-24.1 258.78-22.73 256.48-21.35 255.18-19 253.88-16.65 253.88-13.65L253.88-13.65Q253.88-10.7 255.18-8.33 256.48-5.95 258.78-4.6 261.08-3.25 263.93-3.25ZM308.88 0L308.88 0Q308.03 0 307.48-0.55 306.93-1.1 306.93-1.9L306.93-1.9 306.93-14.9Q306.93-18 305.75-20 304.58-22 302.55-23 300.53-24 297.98-24L297.98-24Q295.53-24 293.55-23.05 291.58-22.1 290.43-20.45 289.28-18.8 289.28-16.7L289.28-16.7 286.53-16.7Q286.63-19.85 288.23-22.33 289.83-24.8 292.48-26.23 295.13-27.65 298.38-27.65L298.38-27.65Q301.93-27.65 304.73-26.18 307.53-24.7 309.15-21.85 310.78-19 310.78-14.9L310.78-14.9 310.78-1.9Q310.78-1.1 310.23-0.55 309.68 0 308.88 0ZM287.38 0L287.38 0Q286.48 0 285.95-0.53 285.43-1.05 285.43-1.9L285.43-1.9 285.43-25.4Q285.43-26.3 285.95-26.83 286.48-27.35 287.38-27.35L287.38-27.35Q288.23-27.35 288.75-26.83 289.28-26.3 289.28-25.4L289.28-25.4 289.28-1.9Q289.28-1.05 288.75-0.53 288.23 0 287.38 0ZM287.38-11.15L287.38-11.15Q286.48-11.15 285.95-11.7 285.43-12.25 285.43-13.1L285.43-13.1 285.43-37.1Q285.43-38 285.95-38.53 286.48-39.05 287.38-39.05L287.38-39.05Q288.23-39.05 288.75-38.53 289.28-38 289.28-37.1L289.28-37.1 289.28-13.1Q289.28-12.25 288.75-11.7 288.23-11.15 287.38-11.15ZM323.98 11.9L323.98 11.9Q323.58 11.9 323.08 11.7L323.08 11.7Q321.38 10.95 322.13 9.3L322.13 9.3 338.28-26.3Q339.03-27.9 340.68-27.2L340.68-27.2Q342.38-26.5 341.63-24.85L341.63-24.85 325.43 10.75Q324.93 11.9 323.98 11.9ZM329.53-0.85L329.53-0.85Q328.78-0.5 328.13-0.73 327.48-0.95 327.08-1.7L327.08-1.7 315.93-24.8Q315.58-25.55 315.83-26.2 316.08-26.85 316.83-27.2L316.83-27.2Q317.58-27.55 318.23-27.33 318.88-27.1 319.23-26.35L319.23-26.35 330.18-3.25Q330.58-2.5 330.43-1.85 330.28-1.2 329.53-0.85Z" opacity="1" transform="matrix(1,0,0,1,0,0)" fill="#57534e" class="slogan-text-1" data-fill-palette-color="secondary" id="text-1"></path></svg></g></svg></g></svg></g></svg></g><g><svg viewBox="0 0 216.0475531932698 216.0475531932698" height="216.0475531932698" width="216.0475531932698"><g><svg></svg></g><g id="icon-0"><svg viewBox="0 0 216.0475531932698 216.0475531932698" height="216.0475531932698" width="216.0475531932698"><g><path d="M0 108.024c0-59.66 48.364-108.024 108.024-108.024 59.66 0 108.024 48.364 108.024 108.024 0 59.66-48.364 108.024-108.024 108.024-59.66 0-108.024-48.364-108.024-108.024zM108.024 211.792c57.31 0 103.768-46.459 103.768-103.768 0-57.31-46.459-103.768-103.768-103.768-57.31 0-103.768 46.459-103.768 103.768 0 57.31 46.459 103.768 103.768 103.768z" data-fill-palette-color="accent" fill="#78716c" stroke="transparent"></path></g><g transform="matrix(1,0,0,1,42.74718740825281,69.5451855677593)"><svg viewBox="0 0 130.55317837676418 76.9571820577512" height="76.9571820577512" width="130.55317837676418"><g><svg version="1.0" xmlns="http://www.w3.org/2000/svg" xmlns:xlink="http://www.w3.org/1999/xlink" x="0" y="0" viewBox="0 0 100 58.947" enable-background="new 0 0 100 58.947" xml:space="preserve" width="130.55317837676418" height="76.9571820577512" class="icon-z$-0" data-fill-palette-color="accent" id="z$-0"><rect width="21.353" height="13.534" fill="#78716c" data-fill-palette-color="accent"></rect><rect x="52.632" width="27.067" height="13.534" fill="#78716c" data-fill-palette-color="accent"></rect><path d="M0 14.737v44.21h100v-44.21H0zM49.925 55.038c-10.132 0-18.346-8.214-18.346-18.347 0-10.132 8.214-18.346 18.346-18.346 10.132 0 18.346 8.214 18.346 18.346C68.271 46.824 60.057 55.038 49.925 55.038z" fill="#78716c" data-fill-palette-color="accent"></path><path d="M49.925 20.752c8.803 0 15.939 7.137 15.939 15.939 0 8.804-7.137 15.94-15.939 15.94-8.804 0-15.94-7.137-15.94-15.94C33.985 27.889 41.121 20.752 49.925 20.752" fill="#78716c" data-fill-palette-color="accent"></path><path d="M81.418 0.065v13.403h18.517V0.065H81.418zM97.96 11.494H83.393V2.04H97.96V11.494z" fill="#78716c" data-fill-palette-color="accent"></path><path d="M23.374 0.065v13.403h27.238V0.065H23.374zM48.637 11.494H25.348V2.04h23.289V11.494z" fill="#78716c" data-fill-palette-color="accent"></path></svg></g></svg></g></svg></g></svg></g></svg></g><defs></defs></svg><rect width="395.52" height="134.81314847229748" fill="none" stroke="none" visibility="hidden"></rect></g></svg></g></svg>